<svg 
  xmlns="http://www.w3.org/2000/svg" 
  viewBox="0 0 960 400" 
  preserveAspectRatio="xMidYMid meet" 
  class="hexagon-svg"
>
  <rect width="100%" height="100%" fill="none" />

  <!-- linhas -->
  <line x1="500" y1="75" x2="586.6025403784439" y2="125" stroke="currentColor" stroke-width="2" opacity="0.9"/>
  <line x1="586.6025403784439" y1="125" x2="586.6025403784439" y2="225" stroke="currentColor" stroke-width="2" opacity="0.9"/>
  <line x1="586.6025403784439" y1="225" x2="500" y2="275" stroke="currentColor" stroke-width="2" opacity="0.9"/>
  <line x1="500" y1="275" x2="413.39745962155615" y2="225.00000000000003" stroke="currentColor" stroke-width="2" opacity="0.9"/>
  <line x1="413.39745962155615" y1="225.00000000000003" x2="413.3974596215561" y2="125.00000000000006" stroke="currentColor" stroke-width="2" opacity="0.9"/>
  <line x1="413.3974596215561" y1="125.00000000000006" x2="500" y2="75" stroke="currentColor" stroke-width="2" opacity="0.9"/>

  <!-- diagonais internas -->
  <line x1="500" y1="75" x2="413.39745962155615" y2="225.00000000000003" stroke="currentColor" stroke-width="2" opacity="0.9"/>
  <line x1="500" y1="75" x2="500" y2="275" stroke="currentColor" stroke-width="2" opacity="0.9"/>
  <line x1="500" y1="75" x2="586.6025403784439" y2="225" stroke="currentColor" stroke-width="2" opacity="0.9"/>
  <line x1="586.6025403784439" y1="125" x2="413.3974596215561" y2="125.00000000000006" stroke="currentColor" stroke-width="2" opacity="0.9"/>
  <line x1="586.6025403784439" y1="125" x2="413.39745962155615" y2="225.00000000000003" stroke="currentColor" stroke-width="2" opacity="0.9"/>
  <line x1="586.6025403784439" y1="125" x2="500" y2="275" stroke="currentColor" stroke-width="2" opacity="0.9"/>
  <line x1="586.6025403784439" y1="225" x2="413.3974596215561" y2="125.00000000000006" stroke="currentColor" stroke-width="2" opacity="0.9"/>
  <line x1="586.6025403784439" y1="225" x2="413.39745962155615" y2="225.00000000000003" stroke="currentColor" stroke-width="2" opacity="0.9"/>
  <line x1="500" y1="275" x2="413.3974596215561" y2="125.00000000000006" stroke="currentColor" stroke-width="2" opacity="0.9"/>

  <!-- Pontos + Textos -->
  <g>
    <circle cx="500" cy="75" r="6" fill="currentColor"/>
    <text x="500" y="50" text-anchor="middle" font-size="12" fill="currentColor" font-weight="bold">Professor</text>
  </g>

  <g>
    <circle cx="586.6025403784439" cy="125" r="6" fill="currentColor"/>
    <text x="616.6025403784439" y="115" text-anchor="middle" font-size="12" fill="currentColor" font-weight="bold">Objetivos</text>
  </g>

  <g>
    <circle cx="586.6025403784439" cy="225" r="6" fill="currentColor"/>
    <text x="616.6025403784439" y="245" text-anchor="middle" font-size="12" fill="currentColor" font-weight="bold">Aluno</text>
  </g>

  <g>
    <circle cx="500" cy="275" r="6" fill="currentColor"/>
    <text x="500" y="310" text-anchor="middle" font-size="12" fill="currentColor" font-weight="bold">Técnicas e Recursos</text>
  </g>

  <g>
    <circle cx="413.39745962155615" cy="225.00000000000003" r="6" fill="currentColor"/>
    <text x="373.39745962155615" y="245.00000000000003" text-anchor="middle" font-size="12" fill="currentColor" font-weight="bold">Conteúdo</text>
  </g>

  <g>
    <circle cx="413.3974596215561" cy="125.00000000000006" r="6" fill="currentColor"/>
    <text x="373.3974596215561" y="115" text-anchor="middle" font-size="12" fill="currentColor" font-weight="bold">
      <tspan x="373.3974596215561" dy="0">Organização/</tspan>
      <tspan x="373.3974596215561" dy="12">Sociedade</tspan>
    </text>
  </g>

</svg>
